<?xml version="1.0" encoding="UTF-8"?>
<svg version="1.1" xmlns="http://www.w3.org/2000/svg" width="512" height="512" viewBox="0 0 512 512">
<path d="M0 0 C1.78174763 -0.00158757 1.78174763 -0.00158757 3.59949017 -0.00320721 C4.88582757 0.00818885 6.17216497 0.0195849 7.4974823 0.03132629 C8.87600348 0.03812986 10.25452477 0.04491284 11.63304615 0.05167675 C27.56190116 0.16489049 43.47140463 0.84968988 59.38270926 1.56014657 C62.78792333 1.71153841 66.19330456 1.85898793 69.59868175 2.0066573 C77.62904344 2.355122 85.65905504 2.71095081 93.68888855 3.07136536 C101.92592295 3.44091671 110.16349427 3.79610337 118.40143651 4.14477664 C125.54314243 4.44764338 132.68438806 4.76008133 139.82535297 5.07994145 C144.06162189 5.2695569 148.29796696 5.45553465 152.53481102 5.63187599 C156.50261573 5.79736894 160.46970981 5.97488102 164.43658447 6.16130447 C165.88106992 6.22722347 167.32575009 6.28903981 168.7706089 6.34619331 C183.86576006 6.94845938 196.56965439 8.98982031 207.32633972 20.21418762 C214.31619003 29.05779385 215.80314123 38.25419729 214.93180847 49.24543762 C212.26455713 61.50515313 204.56503575 69.3760592 194.61930847 76.43293762 C192.85124208 77.72174068 191.08434164 79.01214457 189.31852722 80.30403137 C187.98120544 81.27638733 187.98120544 81.27638733 186.61686707 82.26838684 C182.32458199 85.4288637 178.12725138 88.70807675 173.93180847 91.99543762 C172.47357576 93.13619125 171.01524961 94.27682547 169.55680847 95.41731262 C168.9509491 95.89265442 168.34508972 96.36799622 167.72087097 96.85774231 C165.80711146 98.34215948 163.87294712 99.797066 161.93180847 101.24543762 C162.46438115 108.16888245 163.47451881 115.13917938 166.93180847 121.24543762 C170.59545744 123.87812864 174.51107206 125.02783102 178.80680847 126.30793762 C181.17316075 127.11539926 183.53641713 127.93198503 185.89665222 128.75715637 C187.08113953 129.16369446 188.26562683 129.57023254 189.48600769 129.98908997 C210.81740726 137.76657205 230.57580576 150.77022598 247.93180847 165.24543762 C248.49674011 165.70885559 249.06167175 166.17227356 249.64372253 166.6497345 C262.98520545 177.60854131 275.37262654 189.55627673 285.93180847 203.24543762 C286.93475523 204.49750889 287.93873743 205.74875116 288.94352722 206.99934387 C300.98089528 222.15290249 310.85821728 238.66388214 318.93180847 256.24543762 C319.26132507 256.95957825 319.59084167 257.67371887 319.93034363 258.40950012 C331.06792829 282.86850959 338.88984312 309.78053115 339.17008972 336.81184387 C339.17983826 337.60013077 339.18958679 338.38841766 339.19963074 339.20059204 C339.37337662 356.89085534 339.12157087 373.94932728 334.93180847 391.24543762 C334.74988953 392.01887512 334.56797058 392.79231262 334.38053894 393.58918762 C327.91083663 420.23117889 313.66882067 444.44898208 294.93180847 464.24543762 C294.06169128 465.1916095 293.1915741 466.13778137 292.29508972 467.11262512 C272.6416319 488.01001594 246.07945438 501.09269632 218.55680847 508.12043762 C217.81011902 508.31154114 217.06342957 508.50264465 216.29411316 508.69953918 C202.80201861 511.91083253 189.35717572 512.65627374 175.55680847 512.62043762 C174.72654144 512.61956146 173.89627441 512.6186853 173.04084778 512.61778259 C127.58818478 512.46040896 82.76627325 496.84810663 45.93180847 470.24543762 C44.9134491 469.51969543 43.89508972 468.79395325 42.84587097 468.04621887 C24.02829084 454.29111109 5.91293962 437.94992388 -8.06819153 419.24543762 C-8.93009569 418.12428621 -9.7920802 417.00319656 -10.65412903 415.88215637 C-17.8345905 406.42663439 -24.09840228 396.50056493 -30.06819153 386.24543762 C-30.43009583 385.6329718 -30.79200012 385.02050598 -31.16487122 384.38948059 C-39.50760944 370.15094124 -52.06819153 348.03162739 -52.06819153 331.24543762 C-52.69725403 331.21965637 -53.32631653 331.19387512 -53.97444153 331.16731262 C-62.25960172 330.61829598 -67.99818004 328.76261044 -73.75569153 322.62043762 C-84.13760262 309.76102502 -86.85342708 293.08575958 -87.63069153 276.99543762 C-87.67677551 276.13297424 -87.7228595 275.27051086 -87.77033997 274.38191223 C-87.98829761 269.8724013 -88.08358666 265.40360414 -87.95491028 260.88996887 C-87.92385193 259.60944641 -87.92385193 259.60944641 -87.89216614 258.30305481 C-87.84394474 256.6765774 -87.77417376 255.05055261 -87.67976379 253.42610168 C-87.56165476 249.33819188 -87.77787464 247.5925764 -90.44319153 244.40559387 C-91.30944153 243.69274231 -92.17569153 242.97989075 -93.06819153 242.24543762 C-97.07082056 236.68623064 -98.12397632 233.6850513 -97.66194153 226.92121887 C-97.35449916 216.07571858 -101.7488115 206.39494026 -105.56819153 196.43293762 C-106.6431762 193.56029961 -107.71140435 190.68522944 -108.7780304 187.80947876 C-109.43930619 186.03418528 -110.10681531 184.26119842 -110.78120422 182.49084473 C-111.0815155 181.69853958 -111.38182678 180.90623444 -111.6912384 180.08992004 C-111.95771179 179.39347885 -112.22418518 178.69703766 -112.49873352 177.97949219 C-113.06819153 176.24543762 -113.06819153 176.24543762 -113.06819153 174.24543762 C-113.66132141 174.22561829 -114.25445129 174.20579895 -114.86555481 174.18537903 C-152.17987754 172.87825838 -152.17987754 172.87825838 -163.88069153 162.12043762 C-171.34843893 154.04361862 -173.78675769 146.26375599 -173.59016418 135.45466614 C-173.08723989 125.30401545 -169.4009458 118.22049656 -162.06819153 111.24543762 C-155.42907218 105.26008554 -148.20689585 100.14357548 -140.88874817 95.03718567 C-135.40655644 91.20979144 -130.0033797 87.28740107 -124.63069153 83.30793762 C-118.47096966 78.74756677 -112.28936027 74.22165271 -106.06819153 69.74543762 C-99.8715595 65.28535491 -93.70835077 60.78294519 -87.56819153 56.24543762 C-80.69115593 51.16338684 -73.77786069 46.13540965 -66.83772278 41.13996887 C-61.38734799 37.21151375 -55.97174083 33.2379989 -50.56819153 29.24543762 C-10.91924697 -0.0147993 -10.91924697 -0.0147993 0 0 Z M144.99430847 207.99543762 C115.04354418 229.67033284 77.79693827 242.35772378 41.93180847 250.24543762 C34.89239718 274.08214333 39.47125157 301.61857572 48.93180847 324.24543762 C52.20669883 323.63036828 54.26089442 322.49862316 56.91618347 320.50715637 C57.67955017 319.9406134 58.44291687 319.37407043 59.22941589 318.7903595 C60.88905235 317.53336456 62.54805149 316.27552778 64.20646667 315.016922 C68.30817643 311.91271505 72.39521343 308.89657465 76.74040222 306.13996887 C84.51527352 301.45946618 84.51527352 301.45946618 88.81462097 293.94856262 C88.8001782 290.4718592 88.8001782 290.4718592 88.32243347 286.94856262 C86.92612552 273.71156323 92.69242806 259.60153474 100.74430847 249.30793762 C110.69893875 238.90796862 124.35762945 233.33665226 138.64079285 232.95344543 C150.84711792 232.83444227 163.31684096 234.52857612 174.07243347 240.70637512 C176.9603623 241.5436318 178.33028036 240.66943196 180.93180847 239.24543762 C183.66719283 236.87142094 183.66719283 236.87142094 186.24430847 234.12043762 C187.12731628 233.2103595 188.0103241 232.30028137 188.92008972 231.36262512 C189.58395691 230.66395325 190.2478241 229.96528137 190.93180847 229.24543762 C189.43552246 225.0577189 186.49627718 223.29411006 182.86930847 221.05793762 C182.26095154 220.67500549 181.6525946 220.29207336 181.02580261 219.89753723 C163.40191955 207.49675082 163.40191955 207.49675082 144.99430847 207.99543762 Z M240.93180847 292.24543762 C234.85195842 295.2785771 228.81049336 298.493697 224.93180847 304.24543762 C223.37000157 310.47224243 224.09604556 316.70261252 224.66227722 323.02668762 C225.66658898 335.63164292 220.39948378 347.25462419 212.74430847 357.04231262 C203.79698294 366.75486995 191.39610214 372.94576997 178.11930847 373.58137512 C176.39035038 373.61122191 174.66102121 373.62363365 172.93180847 373.62043762 C172.01552673 373.61882629 171.099245 373.61721497 170.15519714 373.61555481 C157.87757627 373.39758991 147.2248621 369.90148351 135.93180847 365.24543762 C131.6530062 369.47492745 127.38071868 373.71084947 123.11442566 377.95295715 C121.66113674 379.39616734 120.20606077 380.83758026 118.74919128 382.2771759 C116.65954012 384.34266103 114.57632939 386.41445248 112.49430847 388.48762512 C111.83809509 389.13351593 111.18188171 389.77940674 110.50578308 390.44487 C109.90516052 391.04534149 109.30453796 391.64581299 108.68571472 392.26448059 C108.15276794 392.79298615 107.61982117 393.3214917 107.07072449 393.86601257 C105.71958212 395.20434084 105.71958212 395.20434084 105.93180847 397.24543762 C108.23358437 398.89218687 110.52156422 400.39649547 112.93180847 401.87043762 C113.65513367 402.31484192 114.37845886 402.75924622 115.123703 403.21711731 C144.443516 420.967834 177.90705142 430.44745458 211.93180847 422.24543762 C216.02141193 421.10415294 219.9738718 419.7779507 223.93180847 418.24543762 C225.54055847 417.68856262 225.54055847 417.68856262 227.18180847 417.12043762 C242.28977636 406.81955042 250.06065002 383.89820302 253.36540222 366.92121887 C257.09472874 342.71917572 253.92823733 315.35404721 242.93180847 293.24543762 C241.94180847 292.75043762 241.94180847 292.75043762 240.93180847 292.24543762 Z " fill="#171717" transform="translate(173.0681915283203,-0.2454376220703125)"/>
<path d="M0 0 C21.60974603 7.3148604 42.39257706 16.69849244 61 30 C61.69448242 30.49532227 62.38896484 30.99064453 63.10449219 31.50097656 C71.51398614 37.55166317 79.41397967 43.93526135 87 51 C88.35006164 52.17141454 89.70407514 53.3382942 91.0625 54.5 C99.2374029 61.65714391 106.26206006 69.49182953 113 78 C113.88607297 79.09557469 114.77281485 80.19060865 115.66015625 81.28515625 C131.66557917 101.16167138 143.34201687 122.40911491 153 146 C153.27328125 146.66209473 153.5465625 147.32418945 153.828125 148.00634766 C156.96917423 155.74336268 159.09645045 163.741528 161.1875 171.8125 C161.43790039 172.7605249 161.68830078 173.7085498 161.94628906 174.68530273 C165.76816366 190.02581091 166.41591662 205.45205876 166.375 221.1875 C166.37268875 222.53970139 166.37268875 222.53970139 166.37033081 223.91921997 C166.19882457 266.13452214 151.38923022 304.55055224 122 335 C121.19949219 335.86367188 120.39898437 336.72734375 119.57421875 337.6171875 C109.36685908 348.34243285 97.01607729 356.11760515 84 363 C82.8759375 363.59554688 81.751875 364.19109375 80.59375 364.8046875 C73.14708492 368.51154512 65.56753446 371.28186218 57.625 373.75 C56.72918213 374.03174072 55.83336426 374.31348145 54.91040039 374.60375977 C39.3774666 379.23091428 24.31752506 380.57979138 8.1875 380.5 C7.25067383 380.49856995 6.31384766 380.49713989 5.34863281 380.4956665 C-17.63833413 380.40920159 -39.37628019 376.98507717 -61 369 C-61.78181641 368.71817871 -62.56363281 368.43635742 -63.36914062 368.14599609 C-88.53277085 358.9804019 -111.18255664 345.72772492 -132 329 C-133.51787109 327.79150391 -133.51787109 327.79150391 -135.06640625 326.55859375 C-148.60478742 315.56212141 -161.57030824 303.00505679 -172 289 C-172.48774902 288.35095703 -172.97549805 287.70191406 -173.47802734 287.03320312 C-188.37682362 267.13238074 -200.60419925 246.00684526 -209.5625 222.75 C-210.04601929 221.50162354 -210.04601929 221.50162354 -210.53930664 220.22802734 C-212.63791538 214.57229099 -213.980014 208.94218522 -215 203 C-213.38931641 202.43732422 -213.38931641 202.43732422 -211.74609375 201.86328125 C-197.33378656 196.83496356 -197.33378656 196.83496356 -187.9453125 185.18359375 C-183.30982201 174.47599383 -186.08407345 162.59050695 -190.10058594 152.13525391 C-192.89215488 145.50792981 -196.43696441 139.2365058 -200 133 C-200.38526855 132.32340332 -200.77053711 131.64680664 -201.16748047 130.94970703 C-202.1093253 129.29847445 -203.05432163 127.64904007 -204 126 C-202.56260487 125.97287934 -201.12506137 125.95354933 -199.6875 125.9375 C-198.48673828 125.92009766 -198.48673828 125.92009766 -197.26171875 125.90234375 C-195 126 -195 126 -192 127 C-189.7583964 127.1076737 -187.51367727 127.15422094 -185.26953125 127.16796875 C-184.27475014 127.17411697 -184.27475014 127.17411697 -183.25987244 127.1803894 C-181.11069572 127.18995657 -178.96169494 127.18991717 -176.8125 127.1875 C-176.0841394 127.18789276 -175.35577881 127.18828552 -174.60534668 127.18869019 C-164.23494489 127.18195318 -154.24968263 126.62162853 -144 125 C-140.00370939 124.60642592 -136.00423914 124.29865164 -132 124 C-132.06856201 124.66789551 -132.13712402 125.33579102 -132.20776367 126.02392578 C-134.4254103 148.76423415 -132.78850852 170.38963128 -125 192 C-124.59265625 193.13953125 -124.1853125 194.2790625 -123.765625 195.453125 C-117.49322627 212.0150767 -109.10934027 227.20505142 -98 241 C-97.51772949 241.60183105 -97.03545898 242.20366211 -96.53857422 242.82373047 C-71.28413523 274.02725208 -34.87966686 296.60904996 5.33984375 301.6875 C30.70019015 303.85273769 57.67520583 299.06587376 78.25 283.1875 C79.8535321 281.81491851 81.43688096 280.41843364 83 279 C83.83144531 278.26136719 84.66289062 277.52273438 85.51953125 276.76171875 C104.01965436 259.39831595 113.33782354 233.99589631 114.26171875 209.0234375 C115.26165636 166.4864088 97.7917203 127.94563649 69 97 C67.82630859 95.70449219 67.82630859 95.70449219 66.62890625 94.3828125 C51.55416652 78.46917494 32.42808307 66.7152354 12.29296875 58.375 C9.79720672 57.33287873 7.39293044 56.25372678 5 55 C5.46254708 51.9471893 6.12309388 49.76365976 7.5625 47 C12.00449041 36.80351971 8.10795157 25.66955921 4.5 15.875 C3.65275369 13.49863948 2.80883319 11.12108974 1.96875 8.7421875 C1.59169922 7.7094873 1.21464844 6.67678711 0.82617188 5.61279297 C0 3 0 3 0 0 Z " fill="#10a37f" transform="translate(341,127)"/>
<path d="M0 0 C0.84473373 0.00187317 1.68946747 0.00374634 2.55979919 0.00567627 C4.34239669 0.01237062 6.12498016 0.02623275 7.9074707 0.046875 C10.58884913 0.07775367 13.26963389 0.08782995 15.95117188 0.09375 C24.5651859 0.13293051 33.1016512 0.38398629 41.69116211 1.08300781 C47.97130521 1.54014286 54.26524011 1.65938563 60.55859375 1.828125 C69.23498804 2.06075921 77.86312497 2.43208418 86.51757812 3.09179688 C92.85800214 3.5149581 99.20719383 3.65782927 105.55859375 3.828125 C114.23786411 4.06083632 122.8690195 4.4320498 131.52636719 5.09179688 C137.82247715 5.51304615 144.12667294 5.65466216 150.43359375 5.828125 C153.16415723 5.91246563 155.89458 6.00099118 158.625 6.08984375 C163.74949207 6.25615487 163.74949207 6.25615487 168.87451172 6.40478516 C181.6308971 6.76569246 190.45327811 8.74229912 199.8515625 17.859375 C206.39651601 25.18045574 207.88624442 31.92741421 207.55078125 41.6953125 C206.83792018 46.95690614 205.05938531 50.98487405 202.05859375 55.328125 C201.26582031 56.48634766 201.26582031 56.48634766 200.45703125 57.66796875 C197.0381483 61.45992199 193.05007867 64.26859323 188.93359375 67.265625 C187.11617477 68.60800497 185.29978856 69.95178418 183.484375 71.296875 C182.57123535 71.97234375 181.6580957 72.6478125 180.71728516 73.34375 C176.80771126 76.26174969 172.96122476 79.25714776 169.12109375 82.265625 C155.00565171 93.29780921 140.71795169 104.0997534 126.36767578 114.82397461 C120.13414024 119.493904 113.98033885 124.2587826 107.84692383 129.05908203 C101.4783085 134.03131017 95.01849166 138.87529327 88.54150391 143.70507812 C82.78227163 148.00907482 77.0935633 152.39463074 71.43359375 156.828125 C48.4200724 174.80084918 48.4200724 174.80084918 36.3671875 174.27734375 C35.44099609 174.23939697 34.51480469 174.2014502 33.56054688 174.16235352 C32.54927734 174.11393311 31.53800781 174.0655127 30.49609375 174.015625 C29.41908203 173.96784912 28.34207031 173.92007324 27.23242188 173.87084961 C23.50724637 173.7001732 19.78294041 173.51601501 16.05859375 173.328125 C15.01218719 173.27561584 15.01218719 173.27561584 13.94464111 173.2220459 C-2.51052925 172.39313277 -18.94963841 171.48972125 -35.36694336 170.08276367 C-50.20149271 168.84133255 -65.07784969 168.12961023 -79.94140625 167.328125 C-80.73717569 165.42065489 -81.53270123 163.51308303 -82.328125 161.60546875 C-82.77115967 160.54320068 -83.21419434 159.48093262 -83.6706543 158.38647461 C-87.40443019 149.40030542 -90.32982864 140.09989729 -86.921875 130.4375 C-86.59832031 129.74140625 -86.27476563 129.0453125 -85.94140625 128.328125 C-72.98893187 128.75876545 -60.09200725 129.41408985 -47.1796875 130.5246582 C-35.916907 131.46583037 -24.63661427 132.04972992 -13.35058594 132.63061523 C-6.60871815 132.98205575 0.10158979 133.39128002 6.81567383 134.11645508 C26.78056833 136.00059174 39.35959513 132.43854152 54.94677734 120.00439453 C58.44485256 117.22777205 62.00564305 114.53389615 65.55859375 111.828125 C66.98707332 110.73319574 68.41545899 109.63814397 69.84375 108.54296875 C73.87229106 105.46210195 77.9311502 102.42320193 81.99609375 99.390625 C88.51384346 94.52489898 94.93897166 89.54780191 101.34741211 84.53930664 C106.84753874 80.24869996 112.40809593 76.04765416 118.00195312 71.88037109 C123.98788694 67.40878919 129.88587421 62.82770937 135.76953125 58.22265625 C136.47335937 57.67222656 137.1771875 57.12179688 137.90234375 56.5546875 C138.58425781 56.01875977 139.26617187 55.48283203 139.96875 54.93066406 C141.41443584 53.82207973 142.88247954 52.7422739 144.3671875 51.68652344 C145.10066406 51.16348633 145.83414062 50.64044922 146.58984375 50.1015625 C147.25564453 49.63927246 147.92144531 49.17698242 148.60742188 48.70068359 C149.32575195 48.02126709 149.32575195 48.02126709 150.05859375 47.328125 C150.05859375 46.338125 150.05859375 45.348125 150.05859375 44.328125 C146.74650684 45.84265897 144.01691646 47.75042872 141.12109375 49.953125 C140.61731201 50.33500977 140.11353027 50.71689453 139.59448242 51.11035156 C137.74658852 52.51288877 135.90273663 53.92065956 134.05859375 55.328125 C132.43895932 56.56010257 130.81915621 57.7918584 129.19921875 59.0234375 C120.28973609 65.80111188 111.39450671 72.59741275 102.50415039 79.40014648 C96.05939485 84.33044104 89.60606811 89.24945329 83.14990234 94.16479492 C78.62390296 97.61067937 74.10030805 101.05961877 69.58203125 104.515625 C65.21398452 107.85578051 60.83858412 111.18603906 56.45654297 114.5078125 C54.90642771 115.6845239 53.35842359 116.86402388 51.81298828 118.046875 C49.79768261 119.58763706 47.77347595 121.11580734 45.74609375 122.640625 C45.17842285 123.07866455 44.61075195 123.5167041 44.02587891 123.96801758 C35.92839952 129.99721062 27.94819696 131.56176591 18.05859375 131.015625 C17.11798096 130.96784912 16.17736816 130.92007324 15.20825195 130.87084961 C13.05485325 130.75972725 10.90162295 130.64531215 8.74853516 130.52832031 C6.13374851 130.38645681 3.51894004 130.24745476 0.90380859 130.11230469 C-17.01795429 129.18530187 -34.90590814 128.10092613 -52.7890625 126.58691406 C-58.85785254 126.08870175 -64.9310632 125.64869226 -71.00390625 125.203125 C-72.1957251 125.11546875 -73.38754395 125.0278125 -74.61547852 124.9375 C-77.39074157 124.73373559 -80.1660469 124.53057293 -82.94140625 124.328125 C-79.64692267 116.34933107 -69.11997766 112.6925588 -61.81640625 109.02734375 C-60.87063721 108.54666946 -59.92486816 108.06599518 -58.95043945 107.570755 C-55.95009676 106.04704508 -52.94597277 104.53098634 -49.94140625 103.015625 C-46.97623918 101.51461524 -44.01191629 100.01196964 -41.04853821 98.50743103 C-39.10854419 97.52396445 -37.16680765 96.54392736 -35.22331238 95.56739807 C-30.80135102 93.33702583 -26.42647553 91.06809932 -22.13012695 88.60327148 C-13.88238941 83.89846729 -7.88512921 81.04242919 1.87109375 82.015625 C10.4305969 82.4290221 17.20972546 82.18946535 25.05859375 78.328125 C25.86039063 77.95429687 26.6621875 77.58046875 27.48828125 77.1953125 C36.73254513 72.49536689 43.70597251 66.35523073 47.05859375 56.328125 C48.05825423 51.37898624 47.51339708 47.5293096 45.12109375 43.078125 C40.87581478 37.02377829 33.99554047 34.24757142 27.05859375 32.328125 C11.50399665 30.97005865 -2.11246884 33.9996548 -14.94140625 43.328125 C-20.75061303 48.62199892 -25.21245842 54.20425868 -26.34375 62.15625 C-28.93028186 67.29136948 -33.62129918 68.88662739 -38.62890625 71.390625 C-40.8383222 72.53958722 -43.04663069 73.69068121 -45.25390625 74.84375 C-46.37667969 75.42447266 -47.49945313 76.00519531 -48.65625 76.60351562 C-53.54545733 79.17020414 -58.33712056 81.89753524 -63.12890625 84.640625 C-69.54178101 88.29428267 -75.97352303 91.90893744 -82.4453125 95.45703125 C-83.08812668 95.8097963 -83.73094086 96.16256134 -84.39323425 96.52601624 C-87.53708395 98.25054905 -90.68315033 99.97083186 -93.83276367 101.68481445 C-107.30480133 108.0533092 -107.30480133 108.0533092 -117.37890625 118.265625 C-119.94140625 121.328125 -119.94140625 121.328125 -122.1574707 121.66235352 C-123.52971802 121.62259399 -123.52971802 121.62259399 -124.9296875 121.58203125 C-126.53952515 121.54057983 -126.53952515 121.54057983 -128.18188477 121.49829102 C-129.42252686 121.44213623 -130.66316895 121.38598145 -131.94140625 121.328125 C-132.64079315 121.29661346 -133.34018005 121.26510193 -134.0607605 121.2326355 C-139.60694862 120.97472431 -145.14895551 120.65544373 -150.69140625 120.328125 C-152.37107578 120.23145804 -154.05076321 120.13510167 -155.73046875 120.0390625 C-159.80099622 119.80565811 -163.87125937 119.56807094 -167.94140625 119.328125 C-164.17173348 109.54193482 -155.28731461 104.54170491 -146.97167969 98.75097656 C-143.37333318 96.22919164 -139.81452313 93.6527785 -136.25390625 91.078125 C-135.49867676 90.53260986 -134.74344727 89.98709473 -133.96533203 89.42504883 C-125.24742632 83.11818605 -116.59443494 76.72353511 -107.94140625 70.328125 C-94.92523776 60.70794014 -81.84898893 51.17795345 -68.71191406 41.72363281 C-60.25546109 35.63572685 -51.82329157 29.51840467 -43.44140625 23.328125 C-41.0739273 21.5833328 -38.70603196 19.83910788 -36.33789062 18.09521484 C-34.71279056 16.89691877 -33.0891371 15.69665881 -31.46679688 14.49462891 C-29.0465199 12.70326157 -26.6196992 10.92110492 -24.19140625 9.140625 C-23.10182617 8.32948242 -23.10182617 8.32948242 -21.99023438 7.50195312 C-21.29865234 6.99728516 -20.60707031 6.49261719 -19.89453125 5.97265625 C-19.29801758 5.53284424 -18.70150391 5.09303223 -18.08691406 4.63989258 C-11.89313191 0.85300233 -7.14335973 -0.11095392 0 0 Z " fill="#5eead4" transform="translate(175.94140625,4.671875)"/>
<path d="M0 0 C3 1 3 1 3.91967773 2.83496094 C4.17177002 3.62676758 4.4238623 4.41857422 4.68359375 5.234375 C5.11200562 6.5505481 5.11200562 6.5505481 5.54907227 7.89331055 C5.98884399 9.30737183 5.98884399 9.30737183 6.4375 10.75 C6.90144165 12.19209839 6.90144165 12.19209839 7.37475586 13.66333008 C9.29343118 19.65308284 11.15982114 25.66017527 12.95703125 31.6875 C13.7787726 34.29737513 14.6522561 36.86275729 15.57421875 39.4375 C22.34192225 58.44562892 22.34192225 58.44562892 17.1875 69.875 C0.04054148 102.90587975 -44.4094685 120.07328053 -77.30126953 131.09521484 C-79.62356951 131.87379669 -81.93544235 132.67603521 -84.24609375 133.48828125 C-95.25412939 137.18817252 -106.55655765 139.38005404 -117.96777344 141.44775391 C-119.84561896 141.78975766 -121.72172758 142.14165635 -123.59472656 142.50927734 C-135.78399864 144.88941647 -147.86805614 145.30679876 -160.25 145.375 C-161.00350739 145.38294586 -161.75701477 145.39089172 -162.53335571 145.39907837 C-170.8873275 145.46681728 -179.03696382 145.08089327 -187.29296875 143.7421875 C-188.34275909 143.58355728 -188.34275909 143.58355728 -189.41375732 143.42172241 C-194.04969693 142.57765866 -196.76122462 141.08597067 -200.0625 137.75 C-203.76916452 132.16550985 -203.33366124 127.13090231 -202.97265625 120.6328125 C-203.01880408 114.50174349 -205.38889168 109.89111994 -209.45703125 105.38671875 C-211.8089048 103.28306405 -214.13064329 101.94504103 -217.03173828 100.72460938 C-220.65798872 98.61769762 -221.21839003 97.25857207 -222.5546875 93.34375 C-222.94140625 92.23902344 -223.328125 91.13429688 -223.7265625 89.99609375 C-224.10554688 88.84238281 -224.48453125 87.68867188 -224.875 86.5 C-225.2771875 85.34628906 -225.679375 84.19257813 -226.09375 83.00390625 C-229 74.53228635 -229 74.53228635 -229 71 C-213.28494859 71.35586442 -197.66438345 72.17312249 -182 73.4375 C-163.346304 74.93557693 -144.69553749 76.16385464 -126 77 C-124.90993652 77.05349609 -123.81987305 77.10699219 -122.69677734 77.16210938 C-103.28978188 78.04380991 -93.17894471 71.84624009 -78.44140625 59.94238281 C-74.36556613 56.69964442 -70.18108171 53.60504422 -66 50.5 C-59.61115705 45.73541832 -53.27605609 40.91217818 -47 36 C-39.90551761 30.44725141 -32.72895522 25.01475778 -25.49829102 19.640625 C-21.22728005 16.45690967 -17.00315228 13.22994613 -12.83984375 9.90625 C-12.01548828 9.25076172 -11.19113281 8.59527344 -10.34179688 7.91992188 C-8.76958365 6.66445023 -7.20414419 5.4004363 -5.64648438 4.12695312 C-4.59750977 3.29067383 -4.59750977 3.29067383 -3.52734375 2.4375 C-2.91624756 1.94121094 -2.30515137 1.44492188 -1.67553711 0.93359375 C-1.12260986 0.62550781 -0.56968262 0.31742187 0 0 Z " fill="#5eead4" transform="translate(327,105)"/>
<path d="M0 0 C6.18363259 2.99812489 12.17804294 9.23782528 14.55859375 15.765625 C16.30613418 24.61158186 15.96908692 32.96179153 11.484375 40.8515625 C10.99453125 41.56054688 10.5046875 42.26953125 10 43 C9.20722656 44.15822266 9.20722656 44.15822266 8.3984375 45.33984375 C4.97955455 49.13179699 0.99148492 51.94046823 -3.125 54.9375 C-4.94241898 56.27987997 -6.75880519 57.62365918 -8.57421875 58.96875 C-9.4873584 59.64421875 -10.40049805 60.3196875 -11.34130859 61.015625 C-15.25088249 63.93362469 -19.09736899 66.92902276 -22.9375 69.9375 C-37.05294204 80.96968421 -51.34064206 91.7716284 -65.69091797 102.49584961 C-71.92445351 107.165779 -78.0782549 111.9306576 -84.21166992 116.73095703 C-90.58028525 121.70318517 -97.04010209 126.54716827 -103.51708984 131.37695312 C-109.27632212 135.68094982 -114.96503045 140.06650574 -120.625 144.5 C-143.63852135 162.47272418 -143.63852135 162.47272418 -155.69140625 161.94921875 C-156.61759766 161.91127197 -157.54378906 161.8733252 -158.49804688 161.83422852 C-159.50931641 161.78580811 -160.52058594 161.7373877 -161.5625 161.6875 C-162.63951172 161.63972412 -163.71652344 161.59194824 -164.82617188 161.54272461 C-168.55134738 161.3720482 -172.27565334 161.18789001 -176 161 C-177.04640656 160.94749084 -177.04640656 160.94749084 -178.11395264 160.8939209 C-194.569123 160.06500777 -211.00823216 159.16159625 -227.42553711 157.75463867 C-242.26008646 156.51320755 -257.13644344 155.80148523 -272 155 C-272.79576944 153.09252989 -273.59129498 151.18495803 -274.38671875 149.27734375 C-274.82975342 148.21507568 -275.27278809 147.15280762 -275.72924805 146.05834961 C-279.46302394 137.07218042 -282.38842239 127.77177229 -278.98046875 118.109375 C-278.65691406 117.41328125 -278.33335937 116.7171875 -278 116 C-265.04752562 116.43064045 -252.150601 117.08596485 -239.23828125 118.1965332 C-227.97550075 119.13770537 -216.69520802 119.72160492 -205.40917969 120.30249023 C-198.6673119 120.65393075 -191.95700396 121.06315502 -185.24291992 121.78833008 C-165.27802542 123.67246674 -152.69899862 120.11041652 -137.11181641 107.67626953 C-133.61374119 104.89964705 -130.0529507 102.20577115 -126.5 99.5 C-125.07152043 98.40507074 -123.64313476 97.31001897 -122.21484375 96.21484375 C-118.18630269 93.13397695 -114.12744355 90.09507693 -110.0625 87.0625 C-103.54475029 82.19677398 -97.11962209 77.21967691 -90.71118164 72.21118164 C-85.21105501 67.92057496 -79.65049782 63.71952916 -74.05664062 59.55224609 C-68.07070681 55.08066419 -62.17271954 50.49958437 -56.2890625 45.89453125 C-55.23332031 45.06888672 -55.23332031 45.06888672 -54.15625 44.2265625 C-53.47433594 43.6893457 -52.79242188 43.15212891 -52.08984375 42.59863281 C-50.6489676 41.49642989 -49.18047288 40.42972838 -47.69140625 39.39355469 C-46.95792969 38.87954102 -46.22445312 38.36552734 -45.46875 37.8359375 C-44.80294922 37.38524902 -44.13714844 36.93456055 -43.45117188 36.47021484 C-41.53167826 34.86982876 -41.53167826 34.86982876 -42 31 C-41.18144531 30.63648437 -40.36289062 30.27296875 -39.51953125 29.8984375 C-35.18254344 27.55906338 -31.53045424 24.69092468 -27.6875 21.625 C-26.09951322 20.3729938 -24.51095627 19.1217105 -22.921875 17.87109375 C-21.70854492 16.91372314 -21.70854492 16.91372314 -20.47070312 15.93701172 C-15.75804305 12.24232348 -10.9856888 8.6256381 -6.21948242 5.00048828 C-5.54763916 4.48856934 -4.8757959 3.97665039 -4.18359375 3.44921875 C-3.59118896 2.99893311 -2.99878418 2.54864746 -2.38842773 2.0847168 C-1.02190496 1.06253427 -1.02190496 1.06253427 0 0 Z " fill="#2dd4bf" transform="translate(368,17)"/>
<path d="M0 0 C1.10472656 0.39058594 2.20945312 0.78117188 3.34765625 1.18359375 C25.71158959 9.92608375 41.98784135 27.3138735 52.4375 48.625 C59.12931483 64.28346756 61.16173011 83.15111125 55.1328125 99.3828125 C54.75898438 100.24648438 54.38515625 101.11015625 54 102 C53.53207031 103.14082031 53.53207031 103.14082031 53.0546875 104.3046875 C51.64624088 107.25177327 50.59632502 108.77637812 47.5 109.9375 C45.7675 109.9684375 45.7675 109.9684375 44 110 C43.08476562 110.03609375 42.16953125 110.0721875 41.2265625 110.109375 C35.12244929 110.263131 29.78791628 109.99946199 24 108 C23.55527344 107.51660156 23.11054688 107.03320312 22.65234375 106.53515625 C20.35741335 104.40298687 18.1444651 104.03255086 15.125 103.25 C3.58660885 99.86164042 -6.05896169 93.96755842 -15 86 C-15.75925781 85.33484375 -16.51851563 84.6696875 -17.30078125 83.984375 C-33.65000466 68.73639461 -40.78820173 47.9373164 -41.65625 26.0625 C-41.7696875 25.051875 -41.883125 24.04125 -42 23 C-42.66 22.67 -43.32 22.34 -44 22 C-43.56753377 14.02174366 -43.05888859 6.07851813 -38.125 -0.5 C-29.0112078 -6.93326508 -9.66114586 -3.44760022 0 0 Z " fill="#10a37f" transform="translate(336,240)"/>
<path d="M0 0 C3.97255842 0.96417303 7.60294996 2.29021538 11.3125 3.97265625 C12.00794922 4.28501221 12.70339844 4.59736816 13.41992188 4.91918945 C53.43613196 23.24781525 84.31394702 57.81981804 99.75 98.91015625 C100.99014547 102.55130793 102.11607512 106.21607533 103.1875 109.91015625 C103.4345166 110.75779541 103.6815332 111.60543457 103.93603516 112.47875977 C109.28148266 131.9383985 109.83829336 158.86173941 102.75 177.91015625 C102.42056396 178.85665039 102.42056396 178.85665039 102.08447266 179.82226562 C96.0090121 197.24460544 85.75913909 210.05372175 71.75 221.91015625 C71.75 217.75297495 73.68528121 214.76336429 75.5625 211.16015625 C90.08092791 183.01593434 90.55868532 150.92805781 81.21875 120.91015625 C80.01596619 117.17233084 78.74055723 113.46570182 77.41308594 109.77050781 C76.48405907 107.16403333 75.61510199 104.53841848 74.75 101.91015625 C76.3529449 100.61697369 77.95740142 99.32566469 79.5625 98.03515625 C80.45582031 97.31585938 81.34914063 96.5965625 82.26953125 95.85546875 C84.75 93.91015625 84.75 93.91015625 87.75 91.91015625 C87.75 90.92015625 87.75 89.93015625 87.75 88.91015625 C83.97279539 90.25185953 81.13862376 91.93214928 77.984375 94.39453125 C77.09363281 95.08289063 76.20289063 95.77125 75.28515625 96.48046875 C73.90650391 97.55941406 73.90650391 97.55941406 72.5 98.66015625 C66.06735887 103.67045876 59.61196797 108.49979378 52.75 112.91015625 C50.60704727 110.76720352 49.91968311 108.9189441 48.89916992 106.11206055 C41.91742469 86.96315725 28.29889593 69.53185642 10.75 58.91015625 C15.24859127 53.45774974 20.07607058 48.5953648 25.25 43.78515625 C25.98347656 43.09550781 26.71695313 42.40585938 27.47265625 41.6953125 C30.66282243 38.7105953 33.84344124 35.80285743 37.28125 33.10546875 C38.0959375 32.38101563 38.910625 31.6565625 39.75 30.91015625 C39.75 29.92015625 39.75 28.93015625 39.75 27.91015625 C35.43269587 28.38425273 33.41352539 30.94412328 30.5 33.97265625 C29.60796875 34.89175781 28.7159375 35.81085938 27.796875 36.7578125 C26.78367187 37.82322266 26.78367187 37.82322266 25.75 38.91015625 C22.69241431 37.48512762 20.09185677 35.77875422 17.375 33.78515625 C6.83167813 26.33371763 -4.66472079 20.54433459 -16.25 14.91015625 C-14.84803432 13.26883058 -13.44298261 11.63005182 -12.0234375 10.00390625 C-10.81847512 8.58130749 -9.65765973 7.12036922 -8.5390625 5.62890625 C-7.96929687 4.89671875 -7.39953125 4.16453125 -6.8125 3.41015625 C-6.04099609 2.37375 -6.04099609 2.37375 -5.25390625 1.31640625 C-3.25 -0.08984375 -3.25 -0.08984375 0 0 Z " fill="#0a6b54" transform="translate(344.25,186.08984375)"/>
<path d="M0 0 C-0.95084473 0.35360596 -0.95084473 0.35360596 -1.92089844 0.71435547 C-4.16406692 1.81611377 -4.16406692 1.81611377 -4.82128906 4.06298828 C-4.96791992 4.89040527 -5.11455078 5.71782227 -5.265625 6.5703125 C-5.43320312 7.46621094 -5.60078125 8.36210937 -5.7734375 9.28515625 C-5.93070312 10.22230469 -6.08796875 11.15945312 -6.25 12.125 C-6.42273438 13.06988281 -6.59546875 14.01476562 -6.7734375 14.98828125 C-7.19796474 17.32318106 -7.60605754 19.65977909 -8 22 C-7.01 22.33 -6.02 22.66 -5 23 C-4.97083496 23.54712646 -4.94166992 24.09425293 -4.91162109 24.65795898 C-3.39701477 50.28584724 4.63944644 69.44937484 23.3671875 87.25 C32.88392245 95.45297693 44.80522698 100.79282844 56.83984375 104.11328125 C57.55269531 104.40589844 58.26554687 104.69851563 59 105 C59.33 105.99 59.66 106.98 60 108 C65.71905383 108.82536345 71.2267149 109.12753701 77 109.0625 C78.16208984 109.05573242 78.16208984 109.05573242 79.34765625 109.04882812 C81.23180524 109.03719758 83.11591365 109.01926906 85 109 C80.88338022 118.13250116 71.88035329 123.60575212 62.9375 127.3125 C49.58043662 131.47596123 32.72884509 130.64233767 20 125 C18.87851562 124.525625 17.75703125 124.05125 16.6015625 123.5625 C-4.46653189 113.88884959 -21.59389052 96.04846218 -29.9375 74.3203125 C-35.56013042 56.74959244 -38.06245102 39.31839386 -29.57421875 22.109375 C-28.14931404 19.64984955 -26.64016826 17.32034302 -25 15 C-24.2575 13.948125 -23.515 12.89625 -22.75 11.8125 C-17.64049164 6.58686645 -7.77089871 -2.59029957 0 0 Z " fill="#0a6b54" transform="translate(300,240)"/>
<path d="M0 0 C3.12666302 1.34381406 4.78187191 2.64572812 6.734375 5.421875 C7.46611938 6.45513916 7.46611938 6.45513916 8.21264648 7.50927734 C8.71997314 8.24871582 9.2272998 8.9881543 9.75 9.75 C10.27859619 10.51135254 10.80719238 11.27270508 11.35180664 12.05712891 C20.72059835 25.72202814 31.38781708 41.40077566 31.3125 58.4375 C31.32861328 59.16259766 31.34472656 59.88769531 31.36132812 60.63476562 C31.36674542 66.66421966 30.21432931 71.28450608 26.30859375 76.07421875 C17.70061615 83.49612845 8.28766669 86.41028183 -2.9609375 86.2734375 C-9.0800064 85.7228786 -13.1380138 83.21999495 -17.25 78.75 C-26.15151634 67.32237768 -29.18934801 52.31799011 -29.09765625 38.1015625 C-29.0962413 37.26660248 -29.09482635 36.43164246 -29.09336853 35.57138062 C-29.08780174 32.92254958 -29.07525547 30.2738052 -29.0625 27.625 C-29.0574807 25.82161581 -29.05291855 24.01823029 -29.04882812 22.21484375 C-29.0378432 17.80986279 -29.02060163 13.40494606 -29 9 C-28.38141113 9.16008545 -27.76282227 9.3201709 -27.12548828 9.48510742 C-19.53660306 11.32349002 -12.77041324 9.68650773 -6 6 C-4.02766319 4.44740535 -2.624507 2.9389277 -1 1 C-0.67 0.67 -0.34 0.34 0 0 Z " fill="#34d399" transform="translate(120,240)"/>
<path d="M0 0 C1.97821441 1.42826806 3.36375318 2.92619981 4.8840332 4.83251953 C6.96806955 7.48027619 6.96806955 7.48027619 9.7590332 9.27001953 C8.7590332 12.27001953 8.7590332 12.27001953 6.19311523 13.82885742 C5.06244629 14.37791748 3.93177734 14.92697754 2.7668457 15.49267578 C2.15355911 15.79439194 1.54027252 16.09610809 0.90840149 16.40696716 C-0.4099421 17.0543063 -1.73050374 17.6971437 -3.05300903 18.3359375 C-5.81638383 19.67087984 -8.56903346 21.0272272 -11.32221985 22.38302612 C-12.69774555 23.06029596 -14.07379415 23.73650485 -15.45036316 24.41165161 C-23.14385933 28.18931593 -30.72002497 32.17816594 -38.2746582 36.22509766 C-40.18632146 37.24098029 -42.10778241 38.23506283 -44.03393555 39.22314453 C-55.69375284 45.28361454 -61.99311783 50.52647263 -66.2409668 63.27001953 C-66.98740352 71.24998412 -65.56492816 77.80657812 -62.8659668 85.27001953 C-62.51598633 86.2802417 -62.16600586 87.29046387 -61.80541992 88.33129883 C-58.48888621 97.8156881 -54.96901702 107.23459327 -51.3918457 116.62353516 C-50.98111816 117.70957031 -50.57039063 118.79560547 -50.1472168 119.91455078 C-49.77918945 120.87723877 -49.41116211 121.83992676 -49.03198242 122.83178711 C-48.2409668 125.27001953 -48.2409668 125.27001953 -48.2409668 128.27001953 C-49.5403418 128.33189453 -50.8397168 128.39376953 -52.1784668 128.45751953 C-59.87692633 129.30616861 -65.36012998 133.52445362 -71.2409668 138.27001953 C-76.66114132 123.66255424 -81.92508214 109.00286419 -87.14135742 94.3215332 C-88.12924587 91.54227056 -89.11863488 88.76354557 -90.1081543 85.98486328 C-90.40914032 85.13609116 -90.71012634 84.28731903 -91.02023315 83.41282654 C-91.29787506 82.63343216 -91.57551697 81.85403778 -91.86157227 81.05102539 C-92.10471161 80.36664902 -92.34785095 79.68227264 -92.59835815 78.97715759 C-93.23629941 77.1931516 -93.23629941 77.1931516 -94.2409668 75.27001953 C-95.75662804 57.77276565 -95.75662804 57.77276565 -90.24584961 50.50976562 C-83.82708926 43.33907548 -74.45656719 39.04477101 -66.0534668 34.64501953 C-57.57537726 30.14360779 -49.14663745 25.57957196 -40.8034668 20.83251953 C-39.89145508 20.31665283 -38.97944336 19.80078613 -38.03979492 19.26928711 C-33.28797188 16.57969261 -28.54770396 13.87169013 -23.82252502 11.13563538 C-21.34524853 9.70557442 -18.86048854 8.28886906 -16.37423706 6.8744812 C-15.16766997 6.18400603 -13.96441385 5.48771025 -12.76467896 4.78543091 C-11.09468923 3.80860583 -9.41219732 2.85324997 -7.72924805 1.89892578 C-6.76543213 1.34277588 -5.80161621 0.78662598 -4.80859375 0.21362305 C-2.2409668 -0.72998047 -2.2409668 -0.72998047 0 0 Z " fill="#34d399" transform="translate(150.240966796875,74.72998046875)"/>
<path d="M0 0 C0.99 0.33 1.98 0.66 3 1 C4.06826091 3.62726354 4.96656494 6.17693648 5.8125 8.875 C13.04217117 30.42067429 26.77011825 45.87448514 45 59 C39.33425951 65.92810724 32.96966361 72.14204142 26.625 78.4375 C25.49586045 79.56161467 24.36695222 80.68596174 23.23828125 81.81054688 C20.49484812 84.54305235 17.74830015 87.27239009 15 90 C8.2935307 86.77367279 3.1566339 81.28240545 -2 76 C-2.64453125 75.38898438 -3.2890625 74.77796875 -3.953125 74.1484375 C-14.75884845 63.7583188 -22.5809085 51.914175 -30 39 C-30.56332031 38.08476562 -31.12664062 37.16953125 -31.70703125 36.2265625 C-32.17496094 35.45054687 -32.64289063 34.67453125 -33.125 33.875 C-33.51945313 33.23304688 -33.91390625 32.59109375 -34.3203125 31.9296875 C-35.30703931 29.12829068 -35.08526111 27.77060777 -34 25 C-31.99651841 23.26164079 -30.14143315 21.87097907 -27.9375 20.4375 C-26.66650599 19.57245781 -25.39703692 18.70517186 -24.12890625 17.8359375 C-23.1236792 17.15289551 -23.1236792 17.15289551 -22.09814453 16.45605469 C-18.44982809 13.92422327 -14.91645704 11.24076521 -11.375 8.5625 C-10.36360962 7.80054321 -10.36360962 7.80054321 -9.33178711 7.02319336 C-8.69378174 6.54245361 -8.05577637 6.06171387 -7.3984375 5.56640625 C-6.80256836 5.12055176 -6.20669922 4.67469727 -5.59277344 4.21533203 C-4.27531268 3.21007151 -2.99534583 2.15588335 -1.7265625 1.08984375 C-1.15679687 0.73019531 -0.58703125 0.37054688 0 0 Z " fill="#0a6b54" transform="translate(260,303)"/>
<path d="M0 0 C4.77007873 2.20237771 8.17937071 5.44014382 12 9 C12.72268066 9.67168213 12.72268066 9.67168213 13.45996094 10.35693359 C24.6390203 20.84821198 33.52792808 32.3117293 41.125 45.625 C41.69299316 46.61947144 41.69299316 46.61947144 42.27246094 47.6340332 C44.17828198 51.0988798 45.32931535 54.12263025 46 58 C35.0652458 66.09319151 24.10315703 74.13903727 13 82 C10.85704727 79.85704727 10.16968311 78.00878785 9.14916992 75.2019043 C2.16742469 56.053001 -11.45110407 38.62170017 -29 28 C-24.50140873 22.54759349 -19.67392942 17.68520855 -14.5 12.875 C-13.76652344 12.18535156 -13.03304688 11.49570313 -12.27734375 10.78515625 C-8.28708799 7.05187581 -4.23939391 3.4478615 0 0 Z " fill="#0a6b54" transform="translate(384,217)"/>
<path d="M0 0 C3.45058102 2.75892781 5.3848651 4.33966733 6.19140625 8.84765625 C6.61478961 15.18076573 5.42661119 19.3587058 1.58984375 24.40234375 C-7.51039074 34.31579068 -20.31013228 39.27010099 -33.57763672 39.859375 C-42.91844498 40.03928113 -49.47911845 38.35544522 -56.80859375 32.27734375 C-59.52623237 28.73259772 -59.6517896 25.10877764 -59.58203125 20.8046875 C-58.65465271 14.17285256 -53.66300168 9.20438928 -48.69921875 5.07421875 C-35.80512654 -3.71347467 -14.11601724 -9.11606838 0 0 Z " fill="#2dd4bf" transform="translate(213.24609375,44.59765625)"/>
<path d="M0 0 C9.92285221 -0.19942648 19.78765999 0.4184027 29.6875 1 C31.37172841 1.09664004 33.05597313 1.19299638 34.74023438 1.2890625 C38.82701811 1.52277343 42.91356246 1.76031503 47 2 C46.84208984 2.77674072 46.68417969 3.55348145 46.52148438 4.35375977 C43.95818528 17.36106263 48.73723412 28.86601748 53 41 C46.2593426 41.10500026 39.6454376 40.84943324 32.9375 40.1875 C32.10412109 40.11724609 31.27074219 40.04699219 30.41210938 39.97460938 C19.02486443 38.86690072 11.84657829 35.48164308 4 27 C-0.34232653 21.13785918 -1.1399664 16.0439046 -1.125 8.875 C-1.12757813 7.63492188 -1.13015625 6.39484375 -1.1328125 5.1171875 C-1 2 -1 2 0 0 Z " fill="#2dd4bf" transform="translate(6,128)"/>
<path d="M0 0 C13.86 0.495 13.86 0.495 28 1 C28 1.33 28 1.66 28 2 C26.35 2 24.7 2 23 2 C23.48766846 3.16120361 23.97533691 4.32240723 24.4777832 5.51879883 C33.48046635 26.96143158 42.47603045 48.40361638 51.16235352 69.97680664 C51.72633512 71.33900879 52.3406564 72.68131279 53 74 C50.41536498 73.71749338 47.83268865 73.4243774 45.25 73.125 C44.52039063 73.04636719 43.79078125 72.96773438 43.0390625 72.88671875 C36.83915626 72.15400256 33.40488013 70.97342322 29.25 66.3125 C25.11214424 60.90011483 25.74651788 56.23118061 26.0625 49.66796875 C25.95780095 43.52344352 23.62546818 38.90701972 19.54296875 34.38671875 C17.1910952 32.28306405 14.86935671 30.94504103 11.96826172 29.72460938 C8.34201128 27.61769762 7.78160997 26.25857207 6.4453125 22.34375 C6.05859375 21.23902344 5.671875 20.13429687 5.2734375 18.99609375 C4.89445312 17.84238281 4.51546875 16.68867188 4.125 15.5 C3.7228125 14.34628906 3.320625 13.19257813 2.90625 12.00390625 C0 3.53228635 0 3.53228635 0 0 Z " fill="#2dd4bf" transform="translate(98,176)"/>
<path d="M0 0 C0.32871094 0.95777344 0.65742188 1.91554688 0.99609375 2.90234375 C9.12688561 25.93471278 21.80476134 46.48044534 41 62 C39.48052501 65.36748512 38.47899158 66.60840337 35 68 C35 68.66 35 69.32 35 70 C33.3125 71.16796875 33.3125 71.16796875 31 72 C14.7352177 65.49943734 1.06896848 47.81394822 -6.4375 32.5 C-9.42027934 25.50260777 -13.23410293 16.49166451 -12.90625 8.80078125 C-11.54309491 6.09209807 -9.55739968 4.92519806 -7.0625 3.25 C-6.16660156 2.63640625 -5.27070313 2.0228125 -4.34765625 1.390625 C-2 0 -2 0 0 0 Z " fill="#0a6b54" transform="translate(279,288)"/>
<path d="M0 0 C5.26113678 2.9383572 8.63559251 6.39913912 10.8125 12.0625 C11.7386269 17.69161504 11.63950071 22.31307542 9.1875 27.5 C4.5759799 32.47558748 0.14196406 36.57724711 -6.87109375 37.36328125 C-16.59204786 37.40464701 -16.59204786 37.40464701 -21.1875 34.0625 C-26.30086797 28.95976273 -29.29097075 25.27939371 -29.5625 17.875 C-29.49333093 12.05711226 -28.09807896 8.36316165 -24.1875 4.0625 C-16.77174406 -2.44454187 -9.06893288 -3.98649467 0 0 Z " fill="#5eead4" transform="translate(109.1875,208.9375)"/>
<path d="M0 0 C2 1.3125 2 1.3125 4 4 C5.15686751 9.82226762 4.6440186 14.7442733 1.5 19.8125 C-5.81853294 29.43310668 -17.241468 35.02614571 -29 37 C-38.85387853 38.01387285 -47.67303726 38.02156397 -56 32 C-58.91796165 29.58022692 -59.80336718 28.58989845 -61 25 C-61.06740865 23.43881572 -61.08514456 21.8749748 -61.0625 20.3125 C-61.05347656 19.50425781 -61.04445312 18.69601563 -61.03515625 17.86328125 C-61.02355469 17.24839844 -61.01195312 16.63351563 -61 16 C-60.67 16.99 -60.34 17.98 -60 19 C-55.67966085 20.63911622 -50.86508773 20.18416477 -46.3125 20.1875 C-45.02182617 20.20586914 -45.02182617 20.20586914 -43.70507812 20.22460938 C-31.88948828 20.25132133 -19.44545058 17.36254084 -10.5 9.25 C-9.9121875 8.65703125 -9.324375 8.0640625 -8.71875 7.453125 C-6.79361362 5.82550969 -5.40823454 5.58215587 -3 5 C-1.22851628 2.52066803 -1.22851628 2.52066803 0 0 Z " fill="#10a37f" transform="translate(215,47)"/>
<path d="M0 0 C1.32 0 2.64 0 4 0 C4.04374756 0.8206897 4.04374756 0.8206897 4.08837891 1.65795898 C5.60298523 27.28584724 13.63944644 46.44937484 32.3671875 64.25 C41.87093233 72.44178006 53.77827294 77.83383782 65.83984375 81.015625 C68 82 68 82 68.81640625 84.109375 C68.87699219 84.73328125 68.93757813 85.3571875 69 86 C51.71788713 86.29080478 35.21853847 74.44376093 23.3125 62.9375 C9.78465932 49.20953137 -0.17195162 30.10379094 -0.08789062 10.51757812 C-0.07951172 9.74865234 -0.07113281 8.97972656 -0.0625 8.1875 C-0.05573242 7.00510742 -0.05573242 7.00510742 -0.04882812 5.79882812 C-0.03711312 3.86585239 -0.01917998 1.93291607 0 0 Z " fill="#171717" transform="translate(291,263)"/>
<path d="M0 0 C0.59039062 0.22816406 1.18078125 0.45632812 1.7890625 0.69140625 C1.4646893 3.65710412 0.86103157 4.62453118 -1.36328125 6.69140625 C-12.66986605 14.81058075 -23.73905893 19.11222778 -37.7109375 18.81640625 C-38.94457031 18.80287109 -38.94457031 18.80287109 -40.203125 18.7890625 C-42.20585833 18.7657749 -44.20843904 18.72991584 -46.2109375 18.69140625 C-46.5409375 17.37140625 -46.8709375 16.05140625 -47.2109375 14.69140625 C-46.58751465 14.66224121 -45.9640918 14.63307617 -45.32177734 14.60302734 C-29.75062944 13.79104377 -15.18869327 12.98670708 -3.859375 0.9140625 C-2.2109375 -0.30859375 -2.2109375 -0.30859375 0 0 Z " fill="#171717" transform="translate(210.2109375,53.30859375)"/>
</svg>
